<mxfile host="Electron" agent="Mozilla/5.0 (X11; Linux x86_64) AppleWebKit/537.36 (KHTML, like Gecko) draw.io/26.0.4 Chrome/128.0.6613.186 Electron/32.2.5 Safari/537.36" version="26.0.4">
  <diagram name="Page-1" id="jHkoe-EavxSJcR3mM00e">
    <mxGraphModel dx="1114" dy="1198" grid="1" gridSize="10" guides="1" tooltips="1" connect="1" arrows="1" fold="1" page="1" pageScale="1" pageWidth="850" pageHeight="1100" math="0" shadow="0">
      <root>
        <mxCell id="0" />
        <mxCell id="1" parent="0" />
        <mxCell id="ydGCNQ147YJNNx6xsncL-1" value="Availability Zone 1" style="fillColor=none;strokeColor=#147EBA;dashed=1;verticalAlign=top;fontStyle=0;fontColor=#147EBA;whiteSpace=wrap;html=1;" vertex="1" parent="1">
          <mxGeometry x="330" y="280" width="150" height="260" as="geometry" />
        </mxCell>
        <mxCell id="ydGCNQ147YJNNx6xsncL-2" value="Linux" style="sketch=0;outlineConnect=0;fontColor=#232F3E;gradientColor=none;fillColor=#ED7100;strokeColor=none;dashed=0;verticalLabelPosition=middle;verticalAlign=middle;align=center;html=1;fontSize=12;fontStyle=0;aspect=fixed;pointerEvents=1;shape=mxgraph.aws4.instance2;labelPosition=center;" vertex="1" parent="1">
          <mxGeometry x="370.5" y="320" width="69" height="69" as="geometry" />
        </mxCell>
        <mxCell id="ydGCNQ147YJNNx6xsncL-3" value="&lt;b&gt;EFS Mount&lt;/b&gt;&lt;div&gt;&lt;b&gt;Target&lt;/b&gt;&lt;/div&gt;" style="sketch=0;outlineConnect=0;fontColor=#232F3E;gradientColor=none;fillColor=#8C4FFF;strokeColor=none;dashed=0;verticalLabelPosition=top;verticalAlign=bottom;align=center;html=1;fontSize=12;fontStyle=0;aspect=fixed;pointerEvents=1;shape=mxgraph.aws4.elastic_network_interface;labelPosition=center;" vertex="1" parent="1">
          <mxGeometry x="368" y="440" width="78" height="78" as="geometry" />
        </mxCell>
        <mxCell id="ydGCNQ147YJNNx6xsncL-4" value="Availability Zone 2" style="fillColor=none;strokeColor=#147EBA;dashed=1;verticalAlign=top;fontStyle=0;fontColor=#147EBA;whiteSpace=wrap;html=1;" vertex="1" parent="1">
          <mxGeometry x="510" y="280" width="150" height="260" as="geometry" />
        </mxCell>
        <mxCell id="ydGCNQ147YJNNx6xsncL-5" value="Linux" style="sketch=0;outlineConnect=0;fontColor=#232F3E;gradientColor=none;fillColor=#ED7100;strokeColor=none;dashed=0;verticalLabelPosition=middle;verticalAlign=middle;align=center;html=1;fontSize=12;fontStyle=0;aspect=fixed;pointerEvents=1;shape=mxgraph.aws4.instance2;labelPosition=center;" vertex="1" parent="1">
          <mxGeometry x="550.5" y="320" width="69" height="69" as="geometry" />
        </mxCell>
        <mxCell id="ydGCNQ147YJNNx6xsncL-6" value="&lt;b&gt;EFS Mount&lt;/b&gt;&lt;div&gt;&lt;b&gt;Target&lt;/b&gt;&lt;/div&gt;" style="sketch=0;outlineConnect=0;fontColor=#232F3E;gradientColor=none;fillColor=#8C4FFF;strokeColor=none;dashed=0;verticalLabelPosition=top;verticalAlign=bottom;align=center;html=1;fontSize=12;fontStyle=0;aspect=fixed;pointerEvents=1;shape=mxgraph.aws4.elastic_network_interface;labelPosition=center;" vertex="1" parent="1">
          <mxGeometry x="548" y="440" width="78" height="78" as="geometry" />
        </mxCell>
        <mxCell id="ydGCNQ147YJNNx6xsncL-8" style="edgeStyle=orthogonalEdgeStyle;rounded=0;orthogonalLoop=1;jettySize=auto;html=1;" edge="1" parent="1" source="ydGCNQ147YJNNx6xsncL-7" target="ydGCNQ147YJNNx6xsncL-3">
          <mxGeometry relative="1" as="geometry">
            <Array as="points">
              <mxPoint x="405" y="657" />
            </Array>
          </mxGeometry>
        </mxCell>
        <mxCell id="ydGCNQ147YJNNx6xsncL-9" style="edgeStyle=orthogonalEdgeStyle;rounded=0;orthogonalLoop=1;jettySize=auto;html=1;" edge="1" parent="1" source="ydGCNQ147YJNNx6xsncL-7" target="ydGCNQ147YJNNx6xsncL-6">
          <mxGeometry relative="1" as="geometry">
            <Array as="points">
              <mxPoint x="585" y="657" />
            </Array>
          </mxGeometry>
        </mxCell>
        <mxCell id="ydGCNQ147YJNNx6xsncL-7" value="EFS - File System" style="sketch=0;outlineConnect=0;fontColor=#232F3E;gradientColor=none;fillColor=#7AA116;strokeColor=none;dashed=0;verticalLabelPosition=bottom;verticalAlign=top;align=center;html=1;fontSize=12;fontStyle=1;aspect=fixed;pointerEvents=1;shape=mxgraph.aws4.file_system;" vertex="1" parent="1">
          <mxGeometry x="458" y="620" width="78" height="73" as="geometry" />
        </mxCell>
      </root>
    </mxGraphModel>
  </diagram>
</mxfile>
